<mxfile host="app.diagrams.net" modified="2021-07-13T17:53:10.688Z" agent="5.0 (Macintosh; Intel Mac OS X 10_15_7) AppleWebKit/537.36 (KHTML, like Gecko) Chrome/91.0.4472.114 Safari/537.36" etag="jdJdG1CGVon__Hl3AoVR" version="14.8.5" type="github">
  <diagram id="HQFSRYMksx_uRPGIgnWE" name="Page-1">
    <mxGraphModel dx="1682" dy="2297" grid="1" gridSize="10" guides="1" tooltips="1" connect="1" arrows="1" fold="1" page="1" pageScale="1" pageWidth="827" pageHeight="1169" math="0" shadow="0">
      <root>
        <mxCell id="0" />
        <mxCell id="1" parent="0" />
        <mxCell id="Zu-9Os61Uu2TyRY1wlus-1" value="" style="verticalLabelPosition=bottom;verticalAlign=top;html=1;shadow=0;dashed=0;strokeWidth=1;shape=mxgraph.android.phone2;strokeColor=#c0c0c0;" vertex="1" parent="1">
          <mxGeometry x="35" y="-1050" width="50" height="80" as="geometry" />
        </mxCell>
        <mxCell id="Zu-9Os61Uu2TyRY1wlus-2" value="«API»&lt;br&gt;&lt;b&gt;Google Firebase&lt;br&gt;&amp;nbsp;Cloud Message&lt;/b&gt;" style="html=1;dropTarget=0;" vertex="1" parent="1">
          <mxGeometry y="-1160" width="100" height="60" as="geometry" />
        </mxCell>
        <mxCell id="Zu-9Os61Uu2TyRY1wlus-3" value="" style="shape=module;jettyWidth=8;jettyHeight=4;" vertex="1" parent="Zu-9Os61Uu2TyRY1wlus-2">
          <mxGeometry x="1" width="20" height="20" relative="1" as="geometry">
            <mxPoint x="-27" y="7" as="offset" />
          </mxGeometry>
        </mxCell>
        <mxCell id="Zu-9Os61Uu2TyRY1wlus-4" value="" style="html=1;points=[];perimeter=orthogonalPerimeter;" vertex="1" parent="1">
          <mxGeometry x="140" y="-1160" width="10" height="1140" as="geometry" />
        </mxCell>
        <mxCell id="Zu-9Os61Uu2TyRY1wlus-6" value="«API»&lt;br&gt;&lt;b&gt;JWT&lt;/b&gt;" style="html=1;dropTarget=0;" vertex="1" parent="1">
          <mxGeometry x="210" y="-180" width="100" height="60" as="geometry" />
        </mxCell>
        <mxCell id="Zu-9Os61Uu2TyRY1wlus-7" value="" style="shape=module;jettyWidth=8;jettyHeight=4;" vertex="1" parent="Zu-9Os61Uu2TyRY1wlus-6">
          <mxGeometry x="1" width="20" height="20" relative="1" as="geometry">
            <mxPoint x="-27" y="7" as="offset" />
          </mxGeometry>
        </mxCell>
        <mxCell id="Zu-9Os61Uu2TyRY1wlus-8" value="«API»&lt;br&gt;&lt;b&gt;IDS&lt;/b&gt;" style="html=1;dropTarget=0;" vertex="1" parent="1">
          <mxGeometry x="480" y="-280" width="100" height="60" as="geometry" />
        </mxCell>
        <mxCell id="Zu-9Os61Uu2TyRY1wlus-9" value="" style="shape=module;jettyWidth=8;jettyHeight=4;" vertex="1" parent="Zu-9Os61Uu2TyRY1wlus-8">
          <mxGeometry x="1" width="20" height="20" relative="1" as="geometry">
            <mxPoint x="-27" y="7" as="offset" />
          </mxGeometry>
        </mxCell>
        <mxCell id="Zu-9Os61Uu2TyRY1wlus-14" value="«MQ»&lt;br&gt;&lt;b&gt;RabbitMQ&lt;/b&gt;" style="html=1;dropTarget=0;" vertex="1" parent="1">
          <mxGeometry x="480" y="-440" width="100" height="60" as="geometry" />
        </mxCell>
        <mxCell id="Zu-9Os61Uu2TyRY1wlus-15" value="" style="shape=module;jettyWidth=8;jettyHeight=4;" vertex="1" parent="Zu-9Os61Uu2TyRY1wlus-14">
          <mxGeometry x="1" width="20" height="20" relative="1" as="geometry">
            <mxPoint x="-27" y="7" as="offset" />
          </mxGeometry>
        </mxCell>
        <mxCell id="Zu-9Os61Uu2TyRY1wlus-16" value="«API»&lt;br&gt;&lt;b&gt;VirtualCard&lt;/b&gt;" style="html=1;dropTarget=0;" vertex="1" parent="1">
          <mxGeometry x="600" y="-440" width="100" height="60" as="geometry" />
        </mxCell>
        <mxCell id="Zu-9Os61Uu2TyRY1wlus-17" value="" style="shape=module;jettyWidth=8;jettyHeight=4;" vertex="1" parent="Zu-9Os61Uu2TyRY1wlus-16">
          <mxGeometry x="1" width="20" height="20" relative="1" as="geometry">
            <mxPoint x="-27" y="7" as="offset" />
          </mxGeometry>
        </mxCell>
        <mxCell id="Zu-9Os61Uu2TyRY1wlus-18" value="«API»&lt;br&gt;&lt;b&gt;JPOS&lt;br&gt;(NAPAS, etc...)&lt;br&gt;&lt;/b&gt;" style="html=1;dropTarget=0;" vertex="1" parent="1">
          <mxGeometry x="480" y="-360" width="100" height="60" as="geometry" />
        </mxCell>
        <mxCell id="Zu-9Os61Uu2TyRY1wlus-19" value="" style="shape=module;jettyWidth=8;jettyHeight=4;" vertex="1" parent="Zu-9Os61Uu2TyRY1wlus-18">
          <mxGeometry x="1" width="20" height="20" relative="1" as="geometry">
            <mxPoint x="-27" y="7" as="offset" />
          </mxGeometry>
        </mxCell>
        <mxCell id="Zu-9Os61Uu2TyRY1wlus-20" value="«API»&lt;br&gt;&lt;b&gt;Datapower&lt;/b&gt;" style="html=1;dropTarget=0;" vertex="1" parent="1">
          <mxGeometry x="600" y="-360" width="100" height="60" as="geometry" />
        </mxCell>
        <mxCell id="Zu-9Os61Uu2TyRY1wlus-21" value="" style="shape=module;jettyWidth=8;jettyHeight=4;" vertex="1" parent="Zu-9Os61Uu2TyRY1wlus-20">
          <mxGeometry x="1" width="20" height="20" relative="1" as="geometry">
            <mxPoint x="-27" y="7" as="offset" />
          </mxGeometry>
        </mxCell>
        <mxCell id="Zu-9Os61Uu2TyRY1wlus-22" value="«API»&lt;br&gt;&lt;b&gt;keypass&lt;/b&gt;" style="html=1;dropTarget=0;" vertex="1" parent="1">
          <mxGeometry x="480" y="-520" width="100" height="60" as="geometry" />
        </mxCell>
        <mxCell id="Zu-9Os61Uu2TyRY1wlus-23" value="" style="shape=module;jettyWidth=8;jettyHeight=4;" vertex="1" parent="Zu-9Os61Uu2TyRY1wlus-22">
          <mxGeometry x="1" width="20" height="20" relative="1" as="geometry">
            <mxPoint x="-27" y="7" as="offset" />
          </mxGeometry>
        </mxCell>
        <mxCell id="Zu-9Os61Uu2TyRY1wlus-24" value="«API»&lt;br&gt;&lt;b&gt;Authentication API&lt;/b&gt;" style="html=1;dropTarget=0;" vertex="1" parent="1">
          <mxGeometry x="480" y="-600" width="100" height="60" as="geometry" />
        </mxCell>
        <mxCell id="Zu-9Os61Uu2TyRY1wlus-25" value="" style="shape=module;jettyWidth=8;jettyHeight=4;" vertex="1" parent="Zu-9Os61Uu2TyRY1wlus-24">
          <mxGeometry x="1" width="20" height="20" relative="1" as="geometry">
            <mxPoint x="-27" y="7" as="offset" />
          </mxGeometry>
        </mxCell>
        <mxCell id="Zu-9Os61Uu2TyRY1wlus-26" value="«API»&lt;br&gt;&lt;b&gt;Transaction&lt;/b&gt;" style="html=1;dropTarget=0;" vertex="1" parent="1">
          <mxGeometry x="600" y="-600" width="100" height="60" as="geometry" />
        </mxCell>
        <mxCell id="Zu-9Os61Uu2TyRY1wlus-27" value="" style="shape=module;jettyWidth=8;jettyHeight=4;" vertex="1" parent="Zu-9Os61Uu2TyRY1wlus-26">
          <mxGeometry x="1" width="20" height="20" relative="1" as="geometry">
            <mxPoint x="-27" y="7" as="offset" />
          </mxGeometry>
        </mxCell>
        <mxCell id="Zu-9Os61Uu2TyRY1wlus-28" value="«Redis»&lt;br&gt;&lt;b&gt;Caching&lt;/b&gt;" style="html=1;dropTarget=0;" vertex="1" parent="1">
          <mxGeometry x="600" y="-520" width="100" height="60" as="geometry" />
        </mxCell>
        <mxCell id="Zu-9Os61Uu2TyRY1wlus-29" value="" style="shape=module;jettyWidth=8;jettyHeight=4;" vertex="1" parent="Zu-9Os61Uu2TyRY1wlus-28">
          <mxGeometry x="1" width="20" height="20" relative="1" as="geometry">
            <mxPoint x="-27" y="7" as="offset" />
          </mxGeometry>
        </mxCell>
        <mxCell id="Zu-9Os61Uu2TyRY1wlus-32" value="«API»&lt;br&gt;&lt;b&gt;Ewallet&lt;/b&gt;" style="html=1;dropTarget=0;" vertex="1" parent="1">
          <mxGeometry x="480" y="-840" width="100" height="60" as="geometry" />
        </mxCell>
        <mxCell id="Zu-9Os61Uu2TyRY1wlus-33" value="" style="shape=module;jettyWidth=8;jettyHeight=4;" vertex="1" parent="Zu-9Os61Uu2TyRY1wlus-32">
          <mxGeometry x="1" width="20" height="20" relative="1" as="geometry">
            <mxPoint x="-27" y="7" as="offset" />
          </mxGeometry>
        </mxCell>
        <mxCell id="Zu-9Os61Uu2TyRY1wlus-34" value="«API»&lt;br&gt;&lt;b&gt;Card&lt;/b&gt;" style="html=1;dropTarget=0;" vertex="1" parent="1">
          <mxGeometry x="600" y="-840" width="100" height="60" as="geometry" />
        </mxCell>
        <mxCell id="Zu-9Os61Uu2TyRY1wlus-35" value="" style="shape=module;jettyWidth=8;jettyHeight=4;" vertex="1" parent="Zu-9Os61Uu2TyRY1wlus-34">
          <mxGeometry x="1" width="20" height="20" relative="1" as="geometry">
            <mxPoint x="-27" y="7" as="offset" />
          </mxGeometry>
        </mxCell>
        <mxCell id="Zu-9Os61Uu2TyRY1wlus-36" value="«API»&lt;br&gt;&lt;b&gt;Producer-consumer&lt;/b&gt;" style="html=1;dropTarget=0;" vertex="1" parent="1">
          <mxGeometry x="600" y="-760" width="100" height="60" as="geometry" />
        </mxCell>
        <mxCell id="Zu-9Os61Uu2TyRY1wlus-37" value="" style="shape=module;jettyWidth=8;jettyHeight=4;" vertex="1" parent="Zu-9Os61Uu2TyRY1wlus-36">
          <mxGeometry x="1" width="20" height="20" relative="1" as="geometry">
            <mxPoint x="-27" y="7" as="offset" />
          </mxGeometry>
        </mxCell>
        <mxCell id="Zu-9Os61Uu2TyRY1wlus-38" value="«API»&lt;br&gt;&lt;b&gt;Notification&lt;/b&gt;" style="html=1;dropTarget=0;" vertex="1" parent="1">
          <mxGeometry x="480" y="-680" width="100" height="60" as="geometry" />
        </mxCell>
        <mxCell id="Zu-9Os61Uu2TyRY1wlus-39" value="" style="shape=module;jettyWidth=8;jettyHeight=4;" vertex="1" parent="Zu-9Os61Uu2TyRY1wlus-38">
          <mxGeometry x="1" width="20" height="20" relative="1" as="geometry">
            <mxPoint x="-27" y="7" as="offset" />
          </mxGeometry>
        </mxCell>
        <mxCell id="Zu-9Os61Uu2TyRY1wlus-40" value="«API»&lt;br&gt;&lt;b&gt;QRPayment&lt;/b&gt;" style="html=1;dropTarget=0;" vertex="1" parent="1">
          <mxGeometry x="600" y="-920" width="100" height="60" as="geometry" />
        </mxCell>
        <mxCell id="Zu-9Os61Uu2TyRY1wlus-41" value="" style="shape=module;jettyWidth=8;jettyHeight=4;" vertex="1" parent="Zu-9Os61Uu2TyRY1wlus-40">
          <mxGeometry x="1" width="20" height="20" relative="1" as="geometry">
            <mxPoint x="-27" y="7" as="offset" />
          </mxGeometry>
        </mxCell>
        <mxCell id="Zu-9Os61Uu2TyRY1wlus-42" value="«DB connection»&lt;br&gt;&lt;b&gt;Couchbase&lt;br&gt;connector&lt;/b&gt;" style="html=1;dropTarget=0;" vertex="1" parent="1">
          <mxGeometry x="680" y="-1090" width="100" height="60" as="geometry" />
        </mxCell>
        <mxCell id="Zu-9Os61Uu2TyRY1wlus-43" value="" style="shape=module;jettyWidth=8;jettyHeight=4;" vertex="1" parent="Zu-9Os61Uu2TyRY1wlus-42">
          <mxGeometry x="1" width="20" height="20" relative="1" as="geometry">
            <mxPoint x="-27" y="7" as="offset" />
          </mxGeometry>
        </mxCell>
        <mxCell id="Zu-9Os61Uu2TyRY1wlus-44" value="«API»&lt;br&gt;&lt;b&gt;Payment&lt;/b&gt;" style="html=1;dropTarget=0;" vertex="1" parent="1">
          <mxGeometry x="480" y="-920" width="100" height="60" as="geometry" />
        </mxCell>
        <mxCell id="Zu-9Os61Uu2TyRY1wlus-45" value="" style="shape=module;jettyWidth=8;jettyHeight=4;" vertex="1" parent="Zu-9Os61Uu2TyRY1wlus-44">
          <mxGeometry x="1" width="20" height="20" relative="1" as="geometry">
            <mxPoint x="-27" y="7" as="offset" />
          </mxGeometry>
        </mxCell>
        <mxCell id="Zu-9Os61Uu2TyRY1wlus-46" value="«API»&lt;br&gt;&lt;b&gt;Authentication&lt;br&gt;(For Safekey)&lt;br&gt;&lt;/b&gt;" style="html=1;dropTarget=0;" vertex="1" parent="1">
          <mxGeometry x="480" y="-760" width="100" height="60" as="geometry" />
        </mxCell>
        <mxCell id="Zu-9Os61Uu2TyRY1wlus-47" value="" style="shape=module;jettyWidth=8;jettyHeight=4;" vertex="1" parent="Zu-9Os61Uu2TyRY1wlus-46">
          <mxGeometry x="1" width="20" height="20" relative="1" as="geometry">
            <mxPoint x="-27" y="7" as="offset" />
          </mxGeometry>
        </mxCell>
        <mxCell id="Zu-9Os61Uu2TyRY1wlus-50" value="«Consumer»&lt;br&gt;&lt;b&gt;Card&lt;/b&gt;" style="html=1;dropTarget=0;" vertex="1" parent="1">
          <mxGeometry x="290" y="-850" width="100" height="60" as="geometry" />
        </mxCell>
        <mxCell id="Zu-9Os61Uu2TyRY1wlus-51" value="" style="shape=module;jettyWidth=8;jettyHeight=4;" vertex="1" parent="Zu-9Os61Uu2TyRY1wlus-50">
          <mxGeometry x="1" width="20" height="20" relative="1" as="geometry">
            <mxPoint x="-27" y="7" as="offset" />
          </mxGeometry>
        </mxCell>
        <mxCell id="Zu-9Os61Uu2TyRY1wlus-52" value="«API»&lt;br&gt;&lt;b&gt;ATG Service&lt;/b&gt;" style="html=1;dropTarget=0;" vertex="1" parent="1">
          <mxGeometry x="170" y="-770" width="100" height="60" as="geometry" />
        </mxCell>
        <mxCell id="Zu-9Os61Uu2TyRY1wlus-53" value="" style="shape=module;jettyWidth=8;jettyHeight=4;" vertex="1" parent="Zu-9Os61Uu2TyRY1wlus-52">
          <mxGeometry x="1" width="20" height="20" relative="1" as="geometry">
            <mxPoint x="-27" y="7" as="offset" />
          </mxGeometry>
        </mxCell>
        <mxCell id="Zu-9Os61Uu2TyRY1wlus-54" value="«API»&lt;br&gt;&lt;b&gt;AAG&lt;/b&gt;" style="html=1;dropTarget=0;" vertex="1" parent="1">
          <mxGeometry x="440" y="-1160" width="100" height="60" as="geometry" />
        </mxCell>
        <mxCell id="Zu-9Os61Uu2TyRY1wlus-55" value="" style="shape=module;jettyWidth=8;jettyHeight=4;" vertex="1" parent="Zu-9Os61Uu2TyRY1wlus-54">
          <mxGeometry x="1" width="20" height="20" relative="1" as="geometry">
            <mxPoint x="-27" y="7" as="offset" />
          </mxGeometry>
        </mxCell>
        <mxCell id="Zu-9Os61Uu2TyRY1wlus-56" value="«API»&lt;br&gt;&lt;b&gt;Person&lt;/b&gt;" style="html=1;dropTarget=0;" vertex="1" parent="1">
          <mxGeometry x="600" y="-680" width="100" height="60" as="geometry" />
        </mxCell>
        <mxCell id="Zu-9Os61Uu2TyRY1wlus-57" value="" style="shape=module;jettyWidth=8;jettyHeight=4;" vertex="1" parent="Zu-9Os61Uu2TyRY1wlus-56">
          <mxGeometry x="1" width="20" height="20" relative="1" as="geometry">
            <mxPoint x="-27" y="7" as="offset" />
          </mxGeometry>
        </mxCell>
        <mxCell id="Zu-9Os61Uu2TyRY1wlus-58" value="«API»&lt;br&gt;&lt;b&gt;FCM Service&lt;/b&gt;" style="html=1;dropTarget=0;" vertex="1" parent="1">
          <mxGeometry x="170" y="-1160" width="100" height="60" as="geometry" />
        </mxCell>
        <mxCell id="Zu-9Os61Uu2TyRY1wlus-59" value="" style="shape=module;jettyWidth=8;jettyHeight=4;" vertex="1" parent="Zu-9Os61Uu2TyRY1wlus-58">
          <mxGeometry x="1" width="20" height="20" relative="1" as="geometry">
            <mxPoint x="-27" y="7" as="offset" />
          </mxGeometry>
        </mxCell>
        <mxCell id="Zu-9Os61Uu2TyRY1wlus-60" value="«API»&lt;br&gt;&lt;b&gt;Banking Job&lt;/b&gt;" style="html=1;dropTarget=0;" vertex="1" parent="1">
          <mxGeometry x="290" y="-1160" width="100" height="60" as="geometry" />
        </mxCell>
        <mxCell id="Zu-9Os61Uu2TyRY1wlus-61" value="" style="shape=module;jettyWidth=8;jettyHeight=4;" vertex="1" parent="Zu-9Os61Uu2TyRY1wlus-60">
          <mxGeometry x="1" width="20" height="20" relative="1" as="geometry">
            <mxPoint x="-27" y="7" as="offset" />
          </mxGeometry>
        </mxCell>
        <mxCell id="Zu-9Os61Uu2TyRY1wlus-62" value="«Redis»&lt;br&gt;&lt;b&gt;Caching&lt;/b&gt;" style="html=1;dropTarget=0;" vertex="1" parent="1">
          <mxGeometry x="290" y="-930" width="100" height="60" as="geometry" />
        </mxCell>
        <mxCell id="Zu-9Os61Uu2TyRY1wlus-63" value="" style="shape=module;jettyWidth=8;jettyHeight=4;" vertex="1" parent="Zu-9Os61Uu2TyRY1wlus-62">
          <mxGeometry x="1" width="20" height="20" relative="1" as="geometry">
            <mxPoint x="-27" y="7" as="offset" />
          </mxGeometry>
        </mxCell>
        <mxCell id="Zu-9Os61Uu2TyRY1wlus-64" value="«MQ»&lt;br&gt;&lt;b&gt;RabbitMQ&lt;/b&gt;" style="html=1;dropTarget=0;" vertex="1" parent="1">
          <mxGeometry x="170" y="-930" width="100" height="60" as="geometry" />
        </mxCell>
        <mxCell id="Zu-9Os61Uu2TyRY1wlus-65" value="" style="shape=module;jettyWidth=8;jettyHeight=4;" vertex="1" parent="Zu-9Os61Uu2TyRY1wlus-64">
          <mxGeometry x="1" width="20" height="20" relative="1" as="geometry">
            <mxPoint x="-27" y="7" as="offset" />
          </mxGeometry>
        </mxCell>
        <mxCell id="Zu-9Os61Uu2TyRY1wlus-66" value="«API»&lt;br&gt;&lt;b&gt;Legacy AAG&lt;br&gt;(For ACBO)&lt;br&gt;&lt;/b&gt;" style="html=1;dropTarget=0;" vertex="1" parent="1">
          <mxGeometry x="440" y="-1090" width="100" height="60" as="geometry" />
        </mxCell>
        <mxCell id="Zu-9Os61Uu2TyRY1wlus-67" value="" style="shape=module;jettyWidth=8;jettyHeight=4;" vertex="1" parent="Zu-9Os61Uu2TyRY1wlus-66">
          <mxGeometry x="1" width="20" height="20" relative="1" as="geometry">
            <mxPoint x="-27" y="7" as="offset" />
          </mxGeometry>
        </mxCell>
        <mxCell id="Zu-9Os61Uu2TyRY1wlus-68" value="«API»&lt;br&gt;&lt;b&gt;Interbank&lt;/b&gt;" style="html=1;dropTarget=0;" vertex="1" parent="1">
          <mxGeometry x="560" y="-1090" width="100" height="60" as="geometry" />
        </mxCell>
        <mxCell id="Zu-9Os61Uu2TyRY1wlus-69" value="" style="shape=module;jettyWidth=8;jettyHeight=4;" vertex="1" parent="Zu-9Os61Uu2TyRY1wlus-68">
          <mxGeometry x="1" width="20" height="20" relative="1" as="geometry">
            <mxPoint x="-27" y="7" as="offset" />
          </mxGeometry>
        </mxCell>
        <mxCell id="Zu-9Os61Uu2TyRY1wlus-70" value="«API»&lt;br&gt;&lt;b&gt;Account&lt;/b&gt;" style="html=1;dropTarget=0;" vertex="1" parent="1">
          <mxGeometry x="560" y="-1160" width="100" height="60" as="geometry" />
        </mxCell>
        <mxCell id="Zu-9Os61Uu2TyRY1wlus-71" value="" style="shape=module;jettyWidth=8;jettyHeight=4;" vertex="1" parent="Zu-9Os61Uu2TyRY1wlus-70">
          <mxGeometry x="1" width="20" height="20" relative="1" as="geometry">
            <mxPoint x="-27" y="7" as="offset" />
          </mxGeometry>
        </mxCell>
        <mxCell id="Zu-9Os61Uu2TyRY1wlus-72" value="«API»&lt;br&gt;&lt;b&gt;FE&lt;/b&gt;" style="html=1;dropTarget=0;" vertex="1" parent="1">
          <mxGeometry x="680" y="-1160" width="100" height="60" as="geometry" />
        </mxCell>
        <mxCell id="Zu-9Os61Uu2TyRY1wlus-73" value="" style="shape=module;jettyWidth=8;jettyHeight=4;" vertex="1" parent="Zu-9Os61Uu2TyRY1wlus-72">
          <mxGeometry x="1" width="20" height="20" relative="1" as="geometry">
            <mxPoint x="-27" y="7" as="offset" />
          </mxGeometry>
        </mxCell>
        <mxCell id="Zu-9Os61Uu2TyRY1wlus-74" value="«API»&lt;br&gt;&lt;b&gt;Auth Service&lt;/b&gt;" style="html=1;dropTarget=0;" vertex="1" parent="1">
          <mxGeometry x="170" y="-1090" width="100" height="60" as="geometry" />
        </mxCell>
        <mxCell id="Zu-9Os61Uu2TyRY1wlus-75" value="" style="shape=module;jettyWidth=8;jettyHeight=4;" vertex="1" parent="Zu-9Os61Uu2TyRY1wlus-74">
          <mxGeometry x="1" width="20" height="20" relative="1" as="geometry">
            <mxPoint x="-27" y="7" as="offset" />
          </mxGeometry>
        </mxCell>
        <mxCell id="Zu-9Os61Uu2TyRY1wlus-76" value="«API»&lt;br&gt;&lt;b&gt;Banking Service&lt;/b&gt;" style="html=1;dropTarget=0;" vertex="1" parent="1">
          <mxGeometry x="290" y="-1090" width="100" height="60" as="geometry" />
        </mxCell>
        <mxCell id="Zu-9Os61Uu2TyRY1wlus-77" value="" style="shape=module;jettyWidth=8;jettyHeight=4;" vertex="1" parent="Zu-9Os61Uu2TyRY1wlus-76">
          <mxGeometry x="1" width="20" height="20" relative="1" as="geometry">
            <mxPoint x="-27" y="7" as="offset" />
          </mxGeometry>
        </mxCell>
        <mxCell id="Zu-9Os61Uu2TyRY1wlus-78" value="«API»&lt;br&gt;&lt;b&gt;Payment Service&lt;/b&gt;" style="html=1;dropTarget=0;" vertex="1" parent="1">
          <mxGeometry x="290" y="-1010" width="100" height="60" as="geometry" />
        </mxCell>
        <mxCell id="Zu-9Os61Uu2TyRY1wlus-79" value="" style="shape=module;jettyWidth=8;jettyHeight=4;" vertex="1" parent="Zu-9Os61Uu2TyRY1wlus-78">
          <mxGeometry x="1" width="20" height="20" relative="1" as="geometry">
            <mxPoint x="-27" y="7" as="offset" />
          </mxGeometry>
        </mxCell>
        <mxCell id="Zu-9Os61Uu2TyRY1wlus-80" value="«API»&lt;br&gt;&lt;b&gt;Back Office&lt;br&gt;Sevice&lt;br&gt;&lt;/b&gt;" style="html=1;dropTarget=0;" vertex="1" parent="1">
          <mxGeometry x="170" y="-1010" width="100" height="60" as="geometry" />
        </mxCell>
        <mxCell id="Zu-9Os61Uu2TyRY1wlus-81" value="" style="shape=module;jettyWidth=8;jettyHeight=4;" vertex="1" parent="Zu-9Os61Uu2TyRY1wlus-80">
          <mxGeometry x="1" width="20" height="20" relative="1" as="geometry">
            <mxPoint x="-27" y="7" as="offset" />
          </mxGeometry>
        </mxCell>
        <mxCell id="Zu-9Os61Uu2TyRY1wlus-82" value="«API»&lt;br&gt;&lt;b&gt;Card Service&lt;/b&gt;" style="html=1;dropTarget=0;" vertex="1" parent="1">
          <mxGeometry x="170" y="-850" width="100" height="60" as="geometry" />
        </mxCell>
        <mxCell id="Zu-9Os61Uu2TyRY1wlus-83" value="" style="shape=module;jettyWidth=8;jettyHeight=4;" vertex="1" parent="Zu-9Os61Uu2TyRY1wlus-82">
          <mxGeometry x="1" width="20" height="20" relative="1" as="geometry">
            <mxPoint x="-27" y="7" as="offset" />
          </mxGeometry>
        </mxCell>
        <mxCell id="Zu-9Os61Uu2TyRY1wlus-84" value="" style="html=1;points=[];perimeter=orthogonalPerimeter;" vertex="1" parent="1">
          <mxGeometry x="410" y="-1160" width="10" height="1140" as="geometry" />
        </mxCell>
        <mxCell id="Zu-9Os61Uu2TyRY1wlus-87" value="" style="strokeWidth=2;html=1;shape=mxgraph.flowchart.database;whiteSpace=wrap;" vertex="1" parent="1">
          <mxGeometry x="380" y="-640" width="60" height="60" as="geometry" />
        </mxCell>
        <mxCell id="Zu-9Os61Uu2TyRY1wlus-88" value="" style="strokeWidth=2;html=1;shape=mxgraph.flowchart.database;whiteSpace=wrap;" vertex="1" parent="1">
          <mxGeometry x="310" y="-640" width="60" height="60" as="geometry" />
        </mxCell>
        <mxCell id="Zu-9Os61Uu2TyRY1wlus-89" value="" style="strokeWidth=2;html=1;shape=mxgraph.flowchart.database;whiteSpace=wrap;" vertex="1" parent="1">
          <mxGeometry x="375" y="-550" width="60" height="60" as="geometry" />
        </mxCell>
        <mxCell id="Zu-9Os61Uu2TyRY1wlus-90" value="" style="strokeWidth=2;html=1;shape=mxgraph.flowchart.database;whiteSpace=wrap;" vertex="1" parent="1">
          <mxGeometry x="305" y="-550" width="60" height="60" as="geometry" />
        </mxCell>
        <mxCell id="Zu-9Os61Uu2TyRY1wlus-91" value="" style="strokeWidth=2;html=1;shape=mxgraph.flowchart.database;whiteSpace=wrap;" vertex="1" parent="1">
          <mxGeometry x="375" y="-450" width="60" height="60" as="geometry" />
        </mxCell>
        <mxCell id="Zu-9Os61Uu2TyRY1wlus-92" value="" style="strokeWidth=2;html=1;shape=mxgraph.flowchart.database;whiteSpace=wrap;" vertex="1" parent="1">
          <mxGeometry x="305" y="-450" width="60" height="60" as="geometry" />
        </mxCell>
      </root>
    </mxGraphModel>
  </diagram>
</mxfile>
